<svg width="1200" height="630" viewBox="0 0 1200 630" xmlns="http://www.w3.org/2000/svg">
    <defs>
        <pattern id="satori_pattern_id_0" x="0" y="0" width="1" height="1" patternUnits="objectBoundingBox">
            <linearGradient id="satori_biid_0" x1="0" y1="0" x2="0" y2="1">
                <stop offset="0%" stop-color="rgba(245, 249, 255)"></stop>
                <stop offset="100%" stop-color="rgb(241, 245, 249)"></stop>
            </linearGradient>
            <rect x="0" y="0" width="1200" height="630" fill="url(#satori_biid_0)"></rect>
        </pattern>
    </defs>
    <mask id="satori_om-id">
        <rect x="0" y="0" width="1200" height="630" fill="#fff"></rect>
    </mask>
    <rect x="0" y="0" width="1200" height="630" fill="url(#satori_pattern_id_0)"></rect>
    <mask id="satori_om-id-0">
        <rect x="120" y="63" width="960" height="504" fill="#fff"></rect>
    </mask>
    <clipPath id="satori_cp-id-0-0">
        <rect x="350" y="265" width="500" height="100"></rect>
    </clipPath>
    <mask id="satori_om-id-0-0">
        <rect x="350" y="265" width="500" height="100" fill="#fff"></rect>
    </mask>
    <image x="350" y="265" width="500" height="100"
        href="data:image/svg+xml;utf8,%3Csvg  xmlns=%22http://www.w3.org/2000/svg%22 fill=%22none%22 width=%22505.2631578947369%22 height=%22100%22 viewBox=%220 0 192 38%22%3E%3Cpath d=%22M16.731 3.0001C25.2914 3.0001 32.231 9.93967 32.231 18.5001C32.231 27.0604 25.2914 34 16.731 34%22 stroke=%22%23E6EDF6%22 stroke-width=%221.8%22 stroke-linecap=%22round%22%3E%3C/path%3E%3Cpath d=%22M16.5002 30.182C10.048 30.182 4.81739 24.9514 4.81738 18.4992C4.81738 12.047 10.0479 6.81641 16.5002 6.8164%22 stroke=%22%23E6EDF6%22 stroke-width=%221.8%22 stroke-linecap=%22round%22%3E%3C/path%3E%3Cpath d=%22M16.6154 22.4321C14.3795 22.4321 12.5669 20.6713 12.5669 18.4992C12.5669 16.3272 14.3795 14.5664 16.6154 14.5664%22 stroke=%22%23E6EDF6%22 stroke-width=%221.8%22 stroke-linecap=%22round%22%3E%3C/path%3E%3Cpath d=%22M16.5001 10.5178C20.9081 10.5178 24.4814 14.0912 24.4814 18.4992C24.4814 22.9071 20.9081 26.4805 16.5001 26.4805%22 stroke=%22%23E6EDF6%22 stroke-width=%221.8%22 stroke-linecap=%22round%22%3E%3C/path%3E%3Cpath d=%22M16.4999 33.9999C7.93956 33.9999 1 27.0603 1 18.4999C1 9.93956 7.93956 3 16.4999 3%22 stroke=%22%2303449E%22 stroke-width=%221.8%22 stroke-linecap=%22round%22%3E%3C/path%3E%3Cpath d=%22M16.4999 26.4802C12.0919 26.4802 8.51855 22.9069 8.51855 18.4989C8.51855 14.0909 12.0919 10.5176 16.4999 10.5176%22 stroke=%22%2303449E%22 stroke-width=%221.8%22 stroke-linecap=%22round%22%3E%3C/path%3E%3Cpath d=%22M16.4998 6.818C22.9521 6.818 28.1826 12.0486 28.1826 18.5008C28.1826 24.953 22.9521 30.1836 16.4998 30.1836%22 stroke=%22%2303449E%22 stroke-width=%221.8%22 stroke-linecap=%22round%22%3E%3C/path%3E%3Cpath d=%22M16.847 14.5679C19.0829 14.5679 20.8955 16.3287 20.8955 18.5008C20.8955 20.6728 19.0829 22.4336 16.847 22.4336%22 stroke=%22%2303449E%22 stroke-width=%221.8%22 stroke-linecap=%22round%22%3E%3C/path%3E%3Cmask id=%22path-9-outside-1_2002_13%22 maskUnits=%22userSpaceOnUse%22 x=%2239%22 y=%229%22 width=%22153%22 height=%2219%22 fill=%22black%22%3E%3Crect fill=%22white%22 x=%2239%22 y=%229%22 width=%22153%22 height=%2219%22%3E%3C/rect%3E%3Cpath d=%22M53.1453 10.2818V18.9696C53.1453 24.1354 51.1875 27 46.526 27C41.9578 27 40 24.1354 40 18.9696V10.2818H43.3329V19.4157C43.3329 22.5622 44.5915 24.0649 46.5726 24.0649C48.5538 24.0649 49.8124 22.5622 49.8124 19.4157V10.2818H53.1453Z%22%3E%3C/path%3E%3Cpath d=%22M70.5516 26.7182H67.545L60.0634 16.4337V26.7182H56.7304V10.2818H59.6671L67.2187 20.5898V10.2818H70.5516V26.7182Z%22%3E%3C/path%3E%3Cpath d=%22M83.2552 14.3439C82.3462 13.5691 81.1342 12.8646 79.8756 12.8646C78.7569 12.8646 77.7546 13.4282 77.7546 14.5083C77.7546 15.7762 79.2929 16.1285 80.5515 16.5746C82.8589 17.3729 85.6325 18.453 85.6325 21.9047C85.6325 25.4738 82.2996 27 79.4561 27C76.9389 27 74.9811 26.0373 73.2097 24.2528L75.4239 22.0691C76.7524 23.3605 77.778 24.1354 79.4794 24.1354C80.7846 24.1354 82.0665 23.5014 82.0665 22.0456C82.0665 20.6367 80.5748 20.0967 78.92 19.4862C76.799 18.6878 74.4217 17.7486 74.4217 14.6022C74.4217 11.4793 77.0554 10 79.7591 10C81.8567 10 83.5115 10.6809 85.1663 11.9489L83.2552 14.3439Z%22%3E%3C/path%3E%3Cpath d=%22M101.842 26.7182H98.5096V19.674H91.5873V26.7182H88.2544V10.2818H91.5873V16.8329H98.5096V10.2818H101.842V26.7182Z%22%3E%3C/path%3E%3Cpath d=%22M119.559 26.7182H115.714L114.665 23.6657H108.861L107.766 26.7182H104.06L110.726 10.2818H113.429L119.559 26.7182ZM111.821 15.4006L109.84 20.9185H113.732L111.845 15.4006H111.821Z%22%3E%3C/path%3E%3Cpath d=%22M124.102 18.5C124.102 21.7873 126.037 24.0649 129.23 24.0649C130.465 24.0649 131.701 23.5718 132.703 22.703L134.567 25.145C132.982 26.366 131.095 27 129.09 27C124.196 27 120.536 23.5249 120.536 18.5C120.536 13.6865 124.429 10 129.23 10C131.095 10 132.633 10.587 134.241 11.5967L132.633 14.203C131.654 13.4517 130.489 12.9351 129.23 12.9351C126.27 12.9351 124.102 15.3771 124.102 18.5Z%22%3E%3C/path%3E%3Cpath d=%22M149.806 10.2818L144.282 16.9268L149.946 26.7182H146.053L142.021 19.6036L140.273 21.6934V26.7182H136.94V10.2818H140.273V17.0207L145.774 10.2818H149.806Z%22%3E%3C/path%3E%3Cpath d=%22M161.871 26.7182H151.849V10.2818H155.181V23.8771H161.871V26.7182Z%22%3E%3C/path%3E%3Cpath d=%22M174.24 26.7182H163.775V10.2818H174.24V13.1229H167.108V16.8329H174.24V19.674H167.108V23.8771H174.24V26.7182Z%22%3E%3C/path%3E%3Cpath d=%22M177.295 26.7182V10.2818H182.05C186.269 10.2818 191 12.4889 191 18.4296C191 24.511 186.315 26.7182 181.84 26.7182H177.295ZM180.628 13.1229V23.8771H181.001C184.824 23.8771 187.434 22.5152 187.434 18.6409C187.434 15.0249 185.313 13.1229 181.654 13.1229H180.628Z%22%3E%3C/path%3E%3C/mask%3E%3Cpath d=%22M53.1453 10.2818V18.9696C53.1453 24.1354 51.1875 27 46.526 27C41.9578 27 40 24.1354 40 18.9696V10.2818H43.3329V19.4157C43.3329 22.5622 44.5915 24.0649 46.5726 24.0649C48.5538 24.0649 49.8124 22.5622 49.8124 19.4157V10.2818H53.1453Z%22 fill=%22%2303449E%22%3E%3C/path%3E%3Cpath d=%22M70.5516 26.7182H67.545L60.0634 16.4337V26.7182H56.7304V10.2818H59.6671L67.2187 20.5898V10.2818H70.5516V26.7182Z%22 fill=%22%2303449E%22%3E%3C/path%3E%3Cpath d=%22M83.2552 14.3439C82.3462 13.5691 81.1342 12.8646 79.8756 12.8646C78.7569 12.8646 77.7546 13.4282 77.7546 14.5083C77.7546 15.7762 79.2929 16.1285 80.5515 16.5746C82.8589 17.3729 85.6325 18.453 85.6325 21.9047C85.6325 25.4738 82.2996 27 79.4561 27C76.9389 27 74.9811 26.0373 73.2097 24.2528L75.4239 22.0691C76.7524 23.3605 77.778 24.1354 79.4794 24.1354C80.7846 24.1354 82.0665 23.5014 82.0665 22.0456C82.0665 20.6367 80.5748 20.0967 78.92 19.4862C76.799 18.6878 74.4217 17.7486 74.4217 14.6022C74.4217 11.4793 77.0554 10 79.7591 10C81.8567 10 83.5115 10.6809 85.1663 11.9489L83.2552 14.3439Z%22 fill=%22%2303449E%22%3E%3C/path%3E%3Cpath d=%22M101.842 26.7182H98.5096V19.674H91.5873V26.7182H88.2544V10.2818H91.5873V16.8329H98.5096V10.2818H101.842V26.7182Z%22 fill=%22%2303449E%22%3E%3C/path%3E%3Cpath d=%22M119.559 26.7182H115.714L114.665 23.6657H108.861L107.766 26.7182H104.06L110.726 10.2818H113.429L119.559 26.7182ZM111.821 15.4006L109.84 20.9185H113.732L111.845 15.4006H111.821Z%22 fill=%22%2303449E%22%3E%3C/path%3E%3Cpath d=%22M124.102 18.5C124.102 21.7873 126.037 24.0649 129.23 24.0649C130.465 24.0649 131.701 23.5718 132.703 22.703L134.567 25.145C132.982 26.366 131.095 27 129.09 27C124.196 27 120.536 23.5249 120.536 18.5C120.536 13.6865 124.429 10 129.23 10C131.095 10 132.633 10.587 134.241 11.5967L132.633 14.203C131.654 13.4517 130.489 12.9351 129.23 12.9351C126.27 12.9351 124.102 15.3771 124.102 18.5Z%22 fill=%22%2303449E%22%3E%3C/path%3E%3Cpath d=%22M149.806 10.2818L144.282 16.9268L149.946 26.7182H146.053L142.021 19.6036L140.273 21.6934V26.7182H136.94V10.2818H140.273V17.0207L145.774 10.2818H149.806Z%22 fill=%22%2303449E%22%3E%3C/path%3E%3Cpath d=%22M161.871 26.7182H151.849V10.2818H155.181V23.8771H161.871V26.7182Z%22 fill=%22%2303449E%22%3E%3C/path%3E%3Cpath d=%22M174.24 26.7182H163.775V10.2818H174.24V13.1229H167.108V16.8329H174.24V19.674H167.108V23.8771H174.24V26.7182Z%22 fill=%22%2303449E%22%3E%3C/path%3E%3Cpath d=%22M177.295 26.7182V10.2818H182.05C186.269 10.2818 191 12.4889 191 18.4296C191 24.511 186.315 26.7182 181.84 26.7182H177.295ZM180.628 13.1229V23.8771H181.001C184.824 23.8771 187.434 22.5152 187.434 18.6409C187.434 15.0249 185.313 13.1229 181.654 13.1229H180.628Z%22 fill=%22%2303449E%22%3E%3C/path%3E%3Cpath d=%22M53.1453 10.2818V18.9696C53.1453 24.1354 51.1875 27 46.526 27C41.9578 27 40 24.1354 40 18.9696V10.2818H43.3329V19.4157C43.3329 22.5622 44.5915 24.0649 46.5726 24.0649C48.5538 24.0649 49.8124 22.5622 49.8124 19.4157V10.2818H53.1453Z%22 stroke=%22%2303449E%22 stroke-width=%220.48%22 mask=%22url(%23path-9-outside-1_2002_13)%22%3E%3C/path%3E%3Cpath d=%22M70.5516 26.7182H67.545L60.0634 16.4337V26.7182H56.7304V10.2818H59.6671L67.2187 20.5898V10.2818H70.5516V26.7182Z%22 stroke=%22%2303449E%22 stroke-width=%220.48%22 mask=%22url(%23path-9-outside-1_2002_13)%22%3E%3C/path%3E%3Cpath d=%22M83.2552 14.3439C82.3462 13.5691 81.1342 12.8646 79.8756 12.8646C78.7569 12.8646 77.7546 13.4282 77.7546 14.5083C77.7546 15.7762 79.2929 16.1285 80.5515 16.5746C82.8589 17.3729 85.6325 18.453 85.6325 21.9047C85.6325 25.4738 82.2996 27 79.4561 27C76.9389 27 74.9811 26.0373 73.2097 24.2528L75.4239 22.0691C76.7524 23.3605 77.778 24.1354 79.4794 24.1354C80.7846 24.1354 82.0665 23.5014 82.0665 22.0456C82.0665 20.6367 80.5748 20.0967 78.92 19.4862C76.799 18.6878 74.4217 17.7486 74.4217 14.6022C74.4217 11.4793 77.0554 10 79.7591 10C81.8567 10 83.5115 10.6809 85.1663 11.9489L83.2552 14.3439Z%22 stroke=%22%2303449E%22 stroke-width=%220.48%22 mask=%22url(%23path-9-outside-1_2002_13)%22%3E%3C/path%3E%3Cpath d=%22M101.842 26.7182H98.5096V19.674H91.5873V26.7182H88.2544V10.2818H91.5873V16.8329H98.5096V10.2818H101.842V26.7182Z%22 stroke=%22%2303449E%22 stroke-width=%220.48%22 mask=%22url(%23path-9-outside-1_2002_13)%22%3E%3C/path%3E%3Cpath d=%22M119.559 26.7182H115.714L114.665 23.6657H108.861L107.766 26.7182H104.06L110.726 10.2818H113.429L119.559 26.7182ZM111.821 15.4006L109.84 20.9185H113.732L111.845 15.4006H111.821Z%22 stroke=%22%2303449E%22 stroke-width=%220.48%22 mask=%22url(%23path-9-outside-1_2002_13)%22%3E%3C/path%3E%3Cpath d=%22M124.102 18.5C124.102 21.7873 126.037 24.0649 129.23 24.0649C130.465 24.0649 131.701 23.5718 132.703 22.703L134.567 25.145C132.982 26.366 131.095 27 129.09 27C124.196 27 120.536 23.5249 120.536 18.5C120.536 13.6865 124.429 10 129.23 10C131.095 10 132.633 10.587 134.241 11.5967L132.633 14.203C131.654 13.4517 130.489 12.9351 129.23 12.9351C126.27 12.9351 124.102 15.3771 124.102 18.5Z%22 stroke=%22%2303449E%22 stroke-width=%220.48%22 mask=%22url(%23path-9-outside-1_2002_13)%22%3E%3C/path%3E%3Cpath d=%22M149.806 10.2818L144.282 16.9268L149.946 26.7182H146.053L142.021 19.6036L140.273 21.6934V26.7182H136.94V10.2818H140.273V17.0207L145.774 10.2818H149.806Z%22 stroke=%22%2303449E%22 stroke-width=%220.48%22 mask=%22url(%23path-9-outside-1_2002_13)%22%3E%3C/path%3E%3Cpath d=%22M161.871 26.7182H151.849V10.2818H155.181V23.8771H161.871V26.7182Z%22 stroke=%22%2303449E%22 stroke-width=%220.48%22 mask=%22url(%23path-9-outside-1_2002_13)%22%3E%3C/path%3E%3Cpath d=%22M174.24 26.7182H163.775V10.2818H174.24V13.1229H167.108V16.8329H174.24V19.674H167.108V23.8771H174.24V26.7182Z%22 stroke=%22%2303449E%22 stroke-width=%220.48%22 mask=%22url(%23path-9-outside-1_2002_13)%22%3E%3C/path%3E%3Cpath d=%22M177.295 26.7182V10.2818H182.05C186.269 10.2818 191 12.4889 191 18.4296C191 24.511 186.315 26.7182 181.84 26.7182H177.295ZM180.628 13.1229V23.8771H181.001C184.824 23.8771 187.434 22.5152 187.434 18.6409C187.434 15.0249 185.313 13.1229 181.654 13.1229H180.628Z%22 stroke=%22%2303449E%22 stroke-width=%220.48%22 mask=%22url(%23path-9-outside-1_2002_13)%22%3E%3C/path%3E%3C/svg%3E"
        preserveAspectRatio="none" clip-path="url(#satori_cp-id-0-0)" mask="url(#satori_om-id-0-0)"></image>
    <mask id="satori_om-id-0-0-0">
        <rect x="350" y="265" width="0" height="100" fill="#fff"></rect>
    </mask>
    <mask id="satori_om-id-0-0-1">
        <rect x="350" y="265" width="0" height="100" fill="#fff"></rect>
    </mask>
    <mask id="satori_om-id-0-0-2">
        <rect x="350" y="265" width="0" height="100" fill="#fff"></rect>
    </mask>
    <mask id="satori_om-id-0-0-3">
        <rect x="350" y="265" width="0" height="100" fill="#fff"></rect>
    </mask>
    <mask id="satori_om-id-0-0-4">
        <rect x="350" y="265" width="0" height="100" fill="#fff"></rect>
    </mask>
    <mask id="satori_om-id-0-0-5">
        <rect x="350" y="265" width="0" height="100" fill="#fff"></rect>
    </mask>
    <mask id="satori_om-id-0-0-6">
        <rect x="350" y="265" width="0" height="100" fill="#fff"></rect>
    </mask>
    <mask id="satori_om-id-0-0-7">
        <rect x="350" y="265" width="0" height="100" fill="#fff"></rect>
    </mask>
    <mask id="satori_om-id-0-0-8">
        <rect x="350" y="265" width="0" height="100" fill="#fff"></rect>
    </mask>
    <mask id="satori_om-id-0-0-8-0">
        <rect x="350" y="265" width="0" height="100" fill="#fff"></rect>
    </mask>
    <mask id="satori_om-id-0-0-8-1">
        <rect x="350" y="265" width="0" height="100" fill="#fff"></rect>
    </mask>
    <mask id="satori_om-id-0-0-8-2">
        <rect x="350" y="265" width="0" height="100" fill="#fff"></rect>
    </mask>
    <mask id="satori_om-id-0-0-8-3">
        <rect x="350" y="265" width="0" height="100" fill="#fff"></rect>
    </mask>
    <mask id="satori_om-id-0-0-8-4">
        <rect x="350" y="265" width="0" height="100" fill="#fff"></rect>
    </mask>
    <mask id="satori_om-id-0-0-8-5">
        <rect x="350" y="265" width="0" height="100" fill="#fff"></rect>
    </mask>
    <mask id="satori_om-id-0-0-8-6">
        <rect x="350" y="265" width="0" height="100" fill="#fff"></rect>
    </mask>
    <mask id="satori_om-id-0-0-8-7">
        <rect x="350" y="265" width="0" height="100" fill="#fff"></rect>
    </mask>
    <mask id="satori_om-id-0-0-8-8">
        <rect x="350" y="265" width="0" height="100" fill="#fff"></rect>
    </mask>
    <mask id="satori_om-id-0-0-8-9">
        <rect x="350" y="265" width="0" height="100" fill="#fff"></rect>
    </mask>
    <mask id="satori_om-id-0-0-8-10">
        <rect x="350" y="265" width="0" height="100" fill="#fff"></rect>
    </mask>
    <mask id="satori_om-id-0-0-9">
        <rect x="350" y="265" width="0" height="100" fill="#fff"></rect>
    </mask>
    <mask id="satori_om-id-0-0-10">
        <rect x="350" y="265" width="0" height="100" fill="#fff"></rect>
    </mask>
    <mask id="satori_om-id-0-0-11">
        <rect x="350" y="265" width="0" height="100" fill="#fff"></rect>
    </mask>
    <mask id="satori_om-id-0-0-12">
        <rect x="350" y="265" width="0" height="100" fill="#fff"></rect>
    </mask>
    <mask id="satori_om-id-0-0-13">
        <rect x="350" y="265" width="0" height="100" fill="#fff"></rect>
    </mask>
    <mask id="satori_om-id-0-0-14">
        <rect x="350" y="265" width="0" height="100" fill="#fff"></rect>
    </mask>
    <mask id="satori_om-id-0-0-15">
        <rect x="350" y="265" width="0" height="100" fill="#fff"></rect>
    </mask>
    <mask id="satori_om-id-0-0-16">
        <rect x="350" y="265" width="0" height="100" fill="#fff"></rect>
    </mask>
    <mask id="satori_om-id-0-0-17">
        <rect x="350" y="265" width="0" height="100" fill="#fff"></rect>
    </mask>
    <mask id="satori_om-id-0-0-18">
        <rect x="350" y="265" width="0" height="100" fill="#fff"></rect>
    </mask>
    <mask id="satori_om-id-0-0-19">
        <rect x="350" y="265" width="0" height="100" fill="#fff"></rect>
    </mask>
    <mask id="satori_om-id-0-0-20">
        <rect x="350" y="265" width="0" height="100" fill="#fff"></rect>
    </mask>
    <mask id="satori_om-id-0-0-21">
        <rect x="350" y="265" width="0" height="100" fill="#fff"></rect>
    </mask>
    <mask id="satori_om-id-0-0-22">
        <rect x="350" y="265" width="0" height="100" fill="#fff"></rect>
    </mask>
    <mask id="satori_om-id-0-0-23">
        <rect x="350" y="265" width="0" height="100" fill="#fff"></rect>
    </mask>
    <mask id="satori_om-id-0-0-24">
        <rect x="350" y="265" width="0" height="100" fill="#fff"></rect>
    </mask>
    <mask id="satori_om-id-0-0-25">
        <rect x="350" y="265" width="0" height="100" fill="#fff"></rect>
    </mask>
    <mask id="satori_om-id-0-0-26">
        <rect x="350" y="265" width="0" height="100" fill="#fff"></rect>
    </mask>
    <mask id="satori_om-id-0-0-27">
        <rect x="350" y="265" width="0" height="100" fill="#fff"></rect>
    </mask>
    <mask id="satori_om-id-0-0-28">
        <rect x="350" y="265" width="0" height="100" fill="#fff"></rect>
    </mask>
    <mask id="satori_om-id-0-1">
        <rect x="562" y="345" width="270" height="39" fill="#fff"></rect>
    </mask>
    <mask id="satori_om-id-0-1-0">
        <rect x="562" y="345" width="270" height="39" fill="#fff"></rect>
    </mask>
    <path fill="black"
        d="M568.8 376L564.0 376L564.0 352.7L568.9 352.7L568.9 361.5L569.0 361.5Q569.3 360.8 569.9 360.0Q570.5 359.3 571.5 358.8Q572.5 358.3 574.0 358.3L574.0 358.3Q575.9 358.3 577.5 359.3Q579.1 360.3 580.1 362.3Q581.0 364.3 581.0 367.3L581.0 367.3Q581.0 370.2 580.1 372.2Q579.2 374.2 577.6 375.3Q576.0 376.3 574.0 376.3L574.0 376.3Q572.6 376.3 571.6 375.8Q570.6 375.4 570.0 374.6Q569.3 373.9 569.0 373.2L569.0 373.2L568.8 373.2L568.8 376ZM568.8 367.3L568.8 367.3Q568.8 368.8 569.2 370.0Q569.6 371.1 570.4 371.8Q571.3 372.4 572.4 372.4L572.4 372.4Q573.6 372.4 574.4 371.8Q575.3 371.1 575.7 370.0Q576.1 368.8 576.1 367.3L576.1 367.3Q576.1 365.8 575.7 364.6Q575.3 363.5 574.4 362.8Q573.6 362.2 572.4 362.2L572.4 362.2Q571.3 362.2 570.4 362.8Q569.6 363.4 569.2 364.6Q568.8 365.7 568.8 367.3ZM586.7 382.5L586.7 382.5Q585.8 382.5 584.9 382.4Q584.1 382.3 583.6 382.0L583.6 382.0L584.7 378.4Q585.6 378.7 586.3 378.7Q586.9 378.7 587.4 378.4Q588.0 378.1 588.3 377.2L588.3 377.2L588.6 376.5L582.3 358.5L587.4 358.5L591 371.4L591.2 371.4L594.8 358.5L600.0 358.5L593.2 377.9Q592.7 379.3 591.8 380.3Q591.0 381.4 589.7 382.0Q588.5 382.5 586.7 382.5Z M631.0 360.3L626.0 360.3Q625.7 359.4 625.3 358.8Q624.9 358.1 624.2 357.7Q623.6 357.2 622.8 357Q622.0 356.8 621.1 356.8L621.1 356.8Q619.3 356.8 617.9 357.6Q616.6 358.5 615.9 360.2Q615.1 361.9 615.1 364.3L615.1 364.3Q615.1 366.8 615.8 368.5Q616.6 370.2 617.9 371.1Q619.3 372.0 621.1 372.0L621.1 372.0Q622.8 372.0 624.0 371.4Q625.2 370.8 625.8 369.7Q626.4 368.6 626.4 367.1L626.4 367.1L627.4 367.3L621.4 367.3L621.4 363.5L631.2 363.5L631.2 366.5Q631.2 369.5 629.9 371.7Q628.6 373.9 626.3 375.1Q624.0 376.3 621.1 376.3L621.1 376.3Q617.8 376.3 615.4 374.9Q612.9 373.4 611.5 370.7Q610.1 368.1 610.1 364.4L610.1 364.4Q610.1 361.6 610.9 359.3Q611.8 357.1 613.3 355.6Q614.7 354.0 616.7 353.2Q618.7 352.4 621 352.4L621 352.4Q623.0 352.4 624.7 353.0Q626.4 353.6 627.7 354.6Q629.0 355.6 629.9 357.1Q630.7 358.5 631.0 360.3L631.0 360.3ZM639.6 376L634.8 376L634.8 358.5L639.5 358.5L639.5 361.6L639.6 361.6Q640.1 360.0 641.3 359.1Q642.4 358.3 643.8 358.3L643.8 358.3Q644.2 358.3 644.6 358.3Q645.0 358.4 645.4 358.5L645.4 358.5L645.4 362.8Q645.0 362.7 644.4 362.6Q643.8 362.5 643.3 362.5L643.3 362.5Q642.3 362.5 641.4 363.0Q640.6 363.4 640.1 364.2Q639.6 365.1 639.6 366.1L639.6 366.1L639.6 376ZM655.0 376.3L655.0 376.3Q652.3 376.3 650.4 375.2Q648.4 374.1 647.4 372.1Q646.3 370.1 646.3 367.4L646.3 367.4Q646.3 364.7 647.4 362.6Q648.4 360.6 650.3 359.5Q652.2 358.3 654.8 358.3L654.8 358.3Q656.5 358.3 658.0 358.9Q659.5 359.4 660.6 360.5Q661.8 361.6 662.4 363.3Q663 365.0 663 367.2L663 367.2L663 368.5L648.3 368.5L648.3 365.5L658.4 365.5Q658.4 364.5 658.0 363.7Q657.5 362.9 656.7 362.4Q655.9 361.9 654.9 361.9L654.9 361.9Q653.8 361.9 652.9 362.4Q652.1 362.9 651.6 363.8Q651.1 364.6 651.1 365.7L651.1 365.7L651.1 368.5Q651.1 369.8 651.6 370.8Q652.1 371.7 653.0 372.2Q653.9 372.7 655.1 372.7L655.1 372.7Q655.9 372.7 656.5 372.5Q657.2 372.3 657.7 371.8Q658.2 371.4 658.4 370.7L658.4 370.7L662.9 371Q662.6 372.6 661.5 373.8Q660.5 375.0 658.8 375.7Q657.1 376.3 655.0 376.3ZM674.1 376.3L674.1 376.3Q671.4 376.3 669.5 375.2Q667.5 374.1 666.5 372.1Q665.5 370.1 665.5 367.4L665.5 367.4Q665.5 364.7 666.5 362.6Q667.5 360.6 669.4 359.5Q671.4 358.3 673.9 358.3L673.9 358.3Q675.6 358.3 677.1 358.9Q678.6 359.4 679.8 360.5Q680.9 361.6 681.5 363.3Q682.1 365.0 682.1 367.2L682.1 367.2L682.1 368.5L667.4 368.5L667.4 365.5L677.6 365.5Q677.6 364.5 677.1 363.7Q676.7 362.9 675.9 362.4Q675.1 361.9 674 361.9L674 361.9Q672.9 361.9 672.1 362.4Q671.2 362.9 670.7 363.8Q670.3 364.6 670.2 365.7L670.2 365.7L670.2 368.5Q670.2 369.8 670.7 370.8Q671.2 371.7 672.1 372.2Q673.0 372.7 674.2 372.7L674.2 372.7Q675 372.7 675.7 372.5Q676.3 372.3 676.8 371.8Q677.3 371.4 677.5 370.7L677.5 370.7L682.0 371Q681.7 372.6 680.6 373.8Q679.6 375.0 677.9 375.7Q676.3 376.3 674.1 376.3ZM690.1 365.9L690.1 365.9L690.1 376L685.3 376L685.3 358.5L689.9 358.5L689.9 361.6L690.1 361.6Q690.7 360.1 692.0 359.2Q693.4 358.3 695.4 358.3L695.4 358.3Q697.2 358.3 698.5 359.1Q699.9 359.9 700.6 361.4Q701.4 362.9 701.4 364.9L701.4 364.9L701.4 376L696.5 376L696.5 365.8Q696.5 364.1 695.7 363.2Q694.9 362.3 693.4 362.3L693.4 362.3Q692.5 362.3 691.7 362.8Q691.0 363.2 690.6 364.0Q690.1 364.8 690.1 365.9ZM713.1 376.3L713.1 376.3Q710.4 376.3 708.5 375.2Q706.5 374.1 705.5 372.0Q704.5 370.0 704.5 367.3L704.5 367.3Q704.5 364.7 705.5 362.6Q706.6 360.6 708.5 359.5Q710.4 358.3 713.0 358.3L713.0 358.3Q715.3 358.3 717.0 359.1Q718.8 360.0 719.8 361.5Q720.8 363.0 720.9 365L720.9 365L716.3 365Q716.1 363.7 715.3 362.9Q714.5 362.1 713.1 362.1L713.1 362.1Q712 362.1 711.2 362.7Q710.3 363.3 709.9 364.5Q709.4 365.6 709.4 367.3L709.4 367.3Q709.4 368.9 709.9 370.1Q710.3 371.3 711.2 371.9Q712 372.5 713.1 372.5L713.1 372.5Q714.0 372.5 714.6 372.2Q715.3 371.8 715.7 371.2Q716.2 370.5 716.3 369.6L716.3 369.6L720.9 369.6Q720.8 371.6 719.8 373.1Q718.8 374.6 717.1 375.5Q715.4 376.3 713.1 376.3ZM729.0 376.3L729.0 376.3Q727.3 376.3 726.0 375.7Q724.7 375.2 723.9 374.0Q723.2 372.9 723.2 371.1L723.2 371.1Q723.2 369.7 723.7 368.7Q724.2 367.7 725.1 367.1Q726.1 366.5 727.2 366.2Q728.4 365.9 729.7 365.8L729.7 365.8Q731.2 365.6 732.2 365.4Q733.1 365.3 733.5 365.0Q733.9 364.7 733.9 364.2L733.9 364.2L733.9 364.1Q733.9 363.0 733.3 362.4Q732.6 361.9 731.4 361.9L731.4 361.9Q730.0 361.9 729.3 362.4Q728.5 363 728.3 363.9L728.3 363.9L723.8 363.5Q724.1 361.9 725.1 360.7Q726.1 359.6 727.7 358.9Q729.3 358.3 731.4 358.3L731.4 358.3Q732.8 358.3 734.2 358.7Q735.5 359 736.5 359.7Q737.6 360.4 738.2 361.6Q738.8 362.7 738.8 364.2L738.8 364.2L738.8 376L734.2 376L734.2 373.6L734.1 373.6Q733.6 374.4 732.9 375.0Q732.2 375.6 731.2 376.0Q730.3 376.3 729.0 376.3ZM730.3 373.0L730.3 373.0Q731.4 373.0 732.2 372.6Q733.0 372.1 733.5 371.4Q734.0 370.7 734.0 369.8L734.0 369.8L734.0 367.9Q733.8 368.1 733.4 368.2Q733.0 368.3 732.5 368.4Q732.0 368.5 731.5 368.6Q731.0 368.6 730.6 368.7L730.6 368.7Q729.8 368.8 729.1 369.1Q728.5 369.4 728.1 369.8Q727.8 370.3 727.8 371.0L727.8 371.0Q727.8 372.0 728.5 372.5Q729.2 373.0 730.3 373.0ZM747.4 376L742.5 376L742.5 358.5L747.2 358.5L747.2 361.6L747.4 361.6Q747.9 360.0 749.0 359.1Q750.1 358.3 751.6 358.3L751.6 358.3Q752.0 358.3 752.4 358.3Q752.8 358.4 753.1 358.5L753.1 358.5L753.1 362.8Q752.8 362.7 752.2 362.6Q751.6 362.5 751.1 362.5L751.1 362.5Q750.0 362.5 749.2 363.0Q748.4 363.4 747.9 364.2Q747.4 365.1 747.4 366.1L747.4 366.1L747.4 376ZM761.2 376.3L761.2 376.3Q759.3 376.3 757.6 375.3Q756.0 374.2 755.1 372.2Q754.2 370.2 754.2 367.3L754.2 367.3Q754.2 364.3 755.1 362.3Q756.1 360.3 757.7 359.3Q759.3 358.3 761.2 358.3L761.2 358.3Q762.7 358.3 763.7 358.8Q764.7 359.3 765.3 360.0Q765.9 360.8 766.2 361.5L766.2 361.5L766.3 361.5L766.3 352.7L771.2 352.7L771.2 376L766.4 376L766.4 373.2L766.2 373.2Q765.9 373.9 765.2 374.6Q764.6 375.4 763.6 375.8Q762.6 376.3 761.2 376.3ZM762.8 372.4L762.8 372.4Q763.9 372.4 764.8 371.8Q765.6 371.1 766.0 370.0Q766.4 368.8 766.4 367.3L766.4 367.3Q766.4 365.7 766.0 364.6Q765.6 363.4 764.8 362.8Q763.9 362.2 762.8 362.2L762.8 362.2Q761.6 362.2 760.8 362.8Q759.9 363.5 759.5 364.6Q759.1 365.8 759.1 367.3L759.1 367.3Q759.1 368.8 759.5 370.0Q760.0 371.1 760.8 371.8Q761.6 372.4 762.8 372.4ZM778.0 376.3L778.0 376.3Q776.8 376.3 776.0 375.5Q775.2 374.7 775.2 373.6L775.2 373.6Q775.2 372.5 776.0 371.7Q776.8 370.9 778.0 370.9L778.0 370.9Q779.1 370.9 779.9 371.7Q780.7 372.5 780.7 373.6L780.7 373.6Q780.7 374.3 780.3 374.9Q779.9 375.6 779.3 375.9Q778.7 376.3 778.0 376.3ZM789.5 376L784.7 376L784.7 358.5L789.5 358.5L789.5 376ZM787.1 356.3L787.1 356.3Q786.0 356.3 785.2 355.6Q784.5 354.9 784.5 353.8L784.5 353.8Q784.5 352.8 785.2 352.1Q786.0 351.4 787.1 351.4L787.1 351.4Q788.2 351.4 788.9 352.1Q789.7 352.8 789.7 353.8L789.7 353.8Q789.7 354.9 788.9 355.6Q788.2 356.3 787.1 356.3ZM798.2 365.9L798.2 365.9L798.2 376L793.4 376L793.4 358.5L798.0 358.5L798.0 361.6L798.2 361.6Q798.8 360.1 800.1 359.2Q801.5 358.3 803.4 358.3L803.4 358.3Q805.3 358.3 806.6 359.1Q808.0 359.9 808.7 361.4Q809.5 362.9 809.5 364.9L809.5 364.9L809.5 376L804.6 376L804.6 365.8Q804.6 364.1 803.8 363.2Q803.0 362.3 801.5 362.3L801.5 362.3Q800.5 362.3 799.8 362.8Q799.0 363.2 798.6 364.0Q798.2 364.8 798.2 365.9ZM821.1 376.3L821.1 376.3Q818.5 376.3 816.5 375.2Q814.6 374.1 813.6 372.0Q812.6 370.0 812.6 367.3L812.6 367.3Q812.6 364.7 813.6 362.6Q814.6 360.6 816.6 359.5Q818.5 358.3 821.1 358.3L821.1 358.3Q823.4 358.3 825.1 359.1Q826.8 360.0 827.8 361.5Q828.8 363.0 828.9 365L828.9 365L824.4 365Q824.2 363.7 823.4 362.9Q822.5 362.1 821.2 362.1L821.2 362.1Q820.1 362.1 819.2 362.7Q818.4 363.3 817.9 364.5Q817.5 365.6 817.5 367.3L817.5 367.3Q817.5 368.9 817.9 370.1Q818.4 371.3 819.2 371.9Q820.1 372.5 821.2 372.5L821.2 372.5Q822.0 372.5 822.7 372.2Q823.4 371.8 823.8 371.2Q824.2 370.5 824.4 369.6L824.4 369.6L828.9 369.6Q828.8 371.6 827.9 373.1Q826.9 374.6 825.2 375.5Q823.5 376.3 821.1 376.3Z ">
    </path>
</svg>